<svg width="21" height="23" viewBox="0 0 21 23" fill="none" xmlns="http://www.w3.org/2000/svg">
<path d="M19.3176 7.2212C19.2341 6.34987 19.2223 4.84912 19.8056 4.34519C19.816 4.33595 19.8238 4.3226 19.8329 4.31114C20.3098 4.09951 20.6398 3.80251 20.3808 3.40286L13.3461 0.461914L1.9553 2.65924C1.9553 2.65924 0.650916 2.91792 0.767439 5.72969C0.830695 7.26004 1.17663 8.01161 1.47916 8.3815L0.544441 8.77234C0.285007 9.17199 0.614972 9.46908 1.09192 9.68037C1.10098 9.69217 1.10863 9.70543 1.11923 9.71467C1.70216 10.219 1.69094 11.7196 1.60709 12.5911C-0.48707 13.4162 0.264661 13.685 0.264661 13.685L0.724036 13.8393C0.400914 14.2444 0.0800116 15.0126 0.140123 16.4697C0.256708 19.2809 1.32811 19.475 1.32811 19.475L8.78217 22.8366L20.0332 19.0555C20.0332 19.0555 20.7851 18.7862 18.6904 17.961C18.6062 17.0909 18.5945 15.5905 19.1788 15.0848C19.1895 15.0759 19.1973 15.0623 19.206 15.051C19.683 14.8393 20.0127 14.5426 19.7536 14.1429L19.2645 13.9381C19.5907 13.6652 20.0806 12.952 20.1573 11.0995C20.2103 9.82528 19.9707 9.07901 19.6934 8.63966L20.66 8.31512C20.6601 8.31563 21.412 8.04634 19.3176 7.2212ZM9.90684 7.18519L11.7988 6.64567L18.1927 4.8226L19.1453 4.55075C18.8409 5.32371 18.8537 6.38152 18.9041 7.06141C18.9151 7.21521 18.9278 7.35568 18.9401 7.46243L17.8975 7.82214L9.8273 10.6076L9.90684 7.18519ZM1.77959 9.92109L2.73206 10.1929L8.87249 11.9443L9.40893 12.0968L11.0176 12.5555L11.097 15.9781L2.8026 13.1149L1.9849 12.8329C1.99692 12.726 2.00962 12.5857 2.02115 12.4315C2.07121 11.7521 2.08422 10.694 1.77959 9.92109ZM1.40955 5.59436C1.39802 4.84647 1.49408 4.30558 1.68822 4.03065C1.81177 3.85512 1.95758 3.81859 2.05758 3.81859C2.11042 3.81859 2.14846 3.82877 2.15105 3.82877L7.05904 6.04885L9.5077 7.15653L9.42736 10.6029L2.5579 7.93077L2.19538 7.78989C2.18206 7.78467 2.164 7.78108 2.15006 7.78022C2.12176 7.7774 1.4426 7.69066 1.40955 5.59436ZM8.79992 21.3435L1.56812 18.5303C1.55474 18.5249 1.53686 18.5213 1.52293 18.5204C1.49414 18.5177 0.814665 18.4311 0.781804 16.3353C0.77009 15.5865 0.866638 15.0461 1.06041 14.7709C1.18427 14.5954 1.33014 14.5588 1.42996 14.5588C1.48292 14.5588 1.52084 14.5687 1.52361 14.5687C1.52361 14.5687 1.52392 14.5687 1.52361 14.5687L8.87976 17.897L8.79992 21.3435ZM18.2763 17.8014C18.2877 17.9557 18.3004 18.0959 18.3127 18.2029L9.19968 21.3483L9.27933 17.9258L11.2276 17.37L11.5154 17.4666L12.5938 16.9803L17.5649 15.5629L18.5179 15.2909C18.2132 16.0638 18.2258 17.122 18.2763 17.8014ZM18.7782 13.15C18.7616 13.1506 18.7451 13.1536 18.7295 13.1605L18.0422 13.4275L11.4978 15.9735L11.4178 12.5271L13.5649 11.5555L18.7639 9.20296C18.7646 9.20253 19.0374 9.11844 19.2377 9.40099C19.4315 9.67592 19.5277 10.2168 19.5163 10.9647C19.4824 13.0603 18.8029 13.1474 18.7782 13.15Z" fill="white"/>
</svg>
